<?xml version="1.0" encoding="UTF-8" standalone="no"?>
<!-- Created with Inkscape (http://www.inkscape.org/) -->

<svg
   xmlns:dc="http://purl.org/dc/elements/1.1/"
   xmlns:cc="http://creativecommons.org/ns#"
   xmlns:rdf="http://www.w3.org/1999/02/22-rdf-syntax-ns#"
   xmlns:svg="http://www.w3.org/2000/svg"
   xmlns="http://www.w3.org/2000/svg"
   xmlns:sodipodi="http://sodipodi.sourceforge.net/DTD/sodipodi-0.dtd"
   xmlns:inkscape="http://www.inkscape.org/namespaces/inkscape"
   width="343pt"
   height="340pt"
   viewBox="0 0 343 340"
   id="svg4169"
   version="1.1"
   inkscape:version="0.91 r13725"
   sodipodi:docname="farmbase.svg">
  <defs
     id="defs4171" />
  <sodipodi:namedview
     pagecolor="#ffffff"
     bordercolor="#666666"
     borderopacity="1.0"
     inkscape:pageopacity="0.0"
     inkscape:pageshadow="2"
     inkscape:zoom="0.4"
     inkscape:cx="634.73114"
     inkscape:cy="-8.3423599"
     inkscape:document-units="pt"
     inkscape:current-layer="layer1"
     id="namedview4173"
     showgrid="false"
     inkscape:window-width="1280"
     inkscape:window-height="996"
     inkscape:window-x="0"
     inkscape:window-y="0"
     inkscape:window-maximized="1" />
  <metadata
     id="metadata4175">
    <rdf:RDF>
      <cc:Work
         rdf:about="">
        <dc:format>image/svg+xml</dc:format>
        <dc:type
           rdf:resource="http://purl.org/dc/dcmitype/StillImage" />
        <dc:title />
      </cc:Work>
    </rdf:RDF>
  </metadata>
  <g
     inkscape:label="Layer 1"
     inkscape:groupmode="layer"
     id="layer1">
    <path
       style="fill:#98cb64;fill-opacity:1;fill-rule:evenodd;stroke:none;stroke-width:1px;stroke-linecap:butt;stroke-linejoin:miter;stroke-opacity:1"
       d="m 44.26007,15.533773 c 0,0 1.40329,1.91067 3.630859,5.218808 -1.634368,-4.046519 -3.630859,-5.218808 -3.630859,-5.218808 z m 3.630859,5.218808 c 3.560382,8.815112 5.401514,31.290118 -18.862137,85.147319 -19.564728,43.42718 -15.113819,77.1145 -7.218008,98.56968 16.68444,66.71071 74.050078,115.95025 142.167526,115.95025 81.16342,-10e-6 147.07728,-69.90215 147.07729,-155.97657 C 301.06857,61.972791 238.79235,19.084703 174.09254,18.700946 136.51733,18.478076 98.128293,32.596872 68.684825,57.701441 61.445027,41.723451 52.708349,27.906881 47.890929,20.752581 Z m 102.904901,7.476802 c 71.86934,0.304396 147.18377,54.815547 148.15314,133.507277 -10e-6,79.86781 -55.83106,147.19879 -134.97066,147.1988 C 106.91918,308.93547 55.191857,272.2231 33.466195,219.69534 18.308252,157.24617 57.432685,103.71817 57.432685,103.71817 22.854266,179.24228 35.203368,204.12564 35.203368,204.12564 28.205357,179.24197 74.722315,149.11979 80.073737,110.26635 82.312969,94.008644 76.400974,74.778781 68.775068,57.900327 91.835683,37.282139 121.02008,28.103271 150.79583,28.229383 Z"
       id="path3347"
       inkscape:connector-curvature="0" />
    <text
       xml:space="preserve"
       style="font-style:normal;font-weight:normal;font-size:244.34379578px;line-height:125%;font-family:sans-serif;letter-spacing:0px;word-spacing:0px;fill:#000000;fill-opacity:1;stroke:none;stroke-width:1px;stroke-linecap:butt;stroke-linejoin:miter;stroke-opacity:1"
       x="92.240112"
       y="264"
       id="text4769"
       sodipodi:linespacing="125%"><tspan
         sodipodi:role="line"
         id="tspan4771"
         x="92.240112"
         y="264"
         style="font-style:normal;font-variant:normal;font-weight:normal;font-stretch:normal;font-family:Ubuntu;-inkscape-font-specification:Ubuntu" /></text>
    <text
       xml:space="preserve"
       style="font-style:normal;font-weight:normal;font-size:32px;line-height:125%;font-family:sans-serif;letter-spacing:0px;word-spacing:0px;fill:#000000;fill-opacity:1;stroke:none;stroke-width:1px;stroke-linecap:butt;stroke-linejoin:miter;stroke-opacity:1"
       x="138"
       y="176"
       id="text4773"
       sodipodi:linespacing="125%"><tspan
         sodipodi:role="line"
         id="tspan4775"
         x="138"
         y="176"
         style="font-size:144px" /></text>
    <text
       xml:space="preserve"
       style="font-style:normal;font-weight:normal;font-size:315.61108398px;line-height:125%;font-family:sans-serif;letter-spacing:0px;word-spacing:0px;fill:#98cb64;fill-opacity:1;stroke:none;stroke-width:1px;stroke-linecap:butt;stroke-linejoin:miter;stroke-opacity:1"
       x="73.939339"
       y="291.36285"
       id="text4796"
       sodipodi:linespacing="125%"><tspan
         sodipodi:role="line"
         id="tspan4798"
         x="73.939339"
         y="291.36285"
         style="font-style:normal;font-variant:normal;font-weight:normal;font-stretch:normal;font-family:'Jeboy Free';-inkscape-font-specification:'Jeboy Free';fill:#98cb64;fill-opacity:1">Fb</tspan></text>
  </g>
</svg>
